<svg width="100" height="14" viewBox="0 0 100 14" fill="none" xmlns="http://www.w3.org/2000/svg">
<path d="M3.6709 6.59668H1.01172V5.52344H3.6709C4.18587 5.52344 4.60286 5.44141 4.92188 5.27734C5.24089 5.11328 5.47331 4.88542 5.61914 4.59375C5.76953 4.30208 5.84473 3.9694 5.84473 3.5957C5.84473 3.25391 5.76953 2.93262 5.61914 2.63184C5.47331 2.33105 5.24089 2.08952 4.92188 1.90723C4.60286 1.72038 4.18587 1.62695 3.6709 1.62695H1.31934V10.5H0V0.546875H3.6709C4.42285 0.546875 5.05859 0.676758 5.57812 0.936523C6.09766 1.19629 6.49186 1.55632 6.76074 2.0166C7.02962 2.47233 7.16406 2.99414 7.16406 3.58203C7.16406 4.22005 7.02962 4.76465 6.76074 5.21582C6.49186 5.66699 6.09766 6.01107 5.57812 6.24805C5.05859 6.48047 4.42285 6.59668 3.6709 6.59668ZM8.20996 6.88379V6.72656C8.20996 6.19336 8.28743 5.69889 8.44238 5.24316C8.59733 4.78288 8.82064 4.38411 9.1123 4.04688C9.40397 3.70508 9.75716 3.44076 10.1719 3.25391C10.5866 3.0625 11.0514 2.9668 11.5664 2.9668C12.0859 2.9668 12.5531 3.0625 12.9678 3.25391C13.387 3.44076 13.7425 3.70508 14.0342 4.04688C14.3304 4.38411 14.556 4.78288 14.7109 5.24316C14.8659 5.69889 14.9434 6.19336 14.9434 6.72656V6.88379C14.9434 7.41699 14.8659 7.91146 14.7109 8.36719C14.556 8.82292 14.3304 9.22168 14.0342 9.56348C13.7425 9.90072 13.3893 10.165 12.9746 10.3564C12.5645 10.5433 12.0996 10.6367 11.5801 10.6367C11.0605 10.6367 10.5934 10.5433 10.1787 10.3564C9.764 10.165 9.40853 9.90072 9.1123 9.56348C8.82064 9.22168 8.59733 8.82292 8.44238 8.36719C8.28743 7.91146 8.20996 7.41699 8.20996 6.88379ZM9.47461 6.72656V6.88379C9.47461 7.25293 9.5179 7.60156 9.60449 7.92969C9.69108 8.25326 9.82096 8.54036 9.99414 8.79102C10.1719 9.04167 10.3929 9.23991 10.6572 9.38574C10.9215 9.52702 11.2292 9.59766 11.5801 9.59766C11.9264 9.59766 12.2295 9.52702 12.4893 9.38574C12.7536 9.23991 12.9723 9.04167 13.1455 8.79102C13.3187 8.54036 13.4486 8.25326 13.5352 7.92969C13.6263 7.60156 13.6719 7.25293 13.6719 6.88379V6.72656C13.6719 6.36198 13.6263 6.0179 13.5352 5.69434C13.4486 5.36621 13.3164 5.07682 13.1387 4.82617C12.9655 4.57096 12.7467 4.37044 12.4824 4.22461C12.2227 4.07878 11.9173 4.00586 11.5664 4.00586C11.2201 4.00586 10.9147 4.07878 10.6504 4.22461C10.3906 4.37044 10.1719 4.57096 9.99414 4.82617C9.82096 5.07682 9.69108 5.36621 9.60449 5.69434C9.5179 6.0179 9.47461 6.36198 9.47461 6.72656ZM17.7939 4.26562V10.5H16.5293V3.10352H17.7598L17.7939 4.26562ZM20.1045 3.0625L20.0977 4.23828C19.9928 4.21549 19.8926 4.20182 19.7969 4.19727C19.7057 4.18815 19.6009 4.18359 19.4824 4.18359C19.1908 4.18359 18.9333 4.22917 18.71 4.32031C18.4867 4.41146 18.2975 4.53906 18.1426 4.70312C17.9876 4.86719 17.8646 5.06315 17.7734 5.29102C17.6868 5.51432 17.6299 5.76042 17.6025 6.0293L17.2471 6.23438C17.2471 5.78776 17.2904 5.36849 17.377 4.97656C17.4681 4.58464 17.6071 4.23828 17.7939 3.9375C17.9808 3.63216 18.2178 3.39518 18.5049 3.22656C18.7965 3.05339 19.1429 2.9668 19.5439 2.9668C19.6351 2.9668 19.7399 2.97819 19.8584 3.00098C19.9769 3.01921 20.0589 3.03971 20.1045 3.0625ZM24.7119 3.10352V4.07422H20.7129V3.10352H24.7119ZM22.0664 1.30566H23.3311V8.66797C23.3311 8.91862 23.3698 9.10775 23.4473 9.23535C23.5247 9.36296 23.625 9.44727 23.748 9.48828C23.8711 9.5293 24.0033 9.5498 24.1445 9.5498C24.2493 9.5498 24.3587 9.54069 24.4727 9.52246C24.5911 9.49967 24.68 9.48145 24.7393 9.46777L24.7461 10.5C24.6458 10.5319 24.5137 10.5615 24.3496 10.5889C24.1901 10.6208 23.9964 10.6367 23.7686 10.6367C23.4587 10.6367 23.1738 10.5752 22.9141 10.4521C22.6543 10.3291 22.4469 10.124 22.292 9.83691C22.1416 9.54525 22.0664 9.15332 22.0664 8.66113V1.30566ZM25.7236 6.88379V6.72656C25.7236 6.19336 25.8011 5.69889 25.9561 5.24316C26.111 4.78288 26.3343 4.38411 26.626 4.04688C26.9176 3.70508 27.2708 3.44076 27.6855 3.25391C28.1003 3.0625 28.5651 2.9668 29.0801 2.9668C29.5996 2.9668 30.0667 3.0625 30.4814 3.25391C30.9007 3.44076 31.2562 3.70508 31.5479 4.04688C31.8441 4.38411 32.0697 4.78288 32.2246 5.24316C32.3796 5.69889 32.457 6.19336 32.457 6.72656V6.88379C32.457 7.41699 32.3796 7.91146 32.2246 8.36719C32.0697 8.82292 31.8441 9.22168 31.5479 9.56348C31.2562 9.90072 30.903 10.165 30.4883 10.3564C30.0781 10.5433 29.6133 10.6367 29.0938 10.6367C28.5742 10.6367 28.1071 10.5433 27.6924 10.3564C27.2777 10.165 26.9222 9.90072 26.626 9.56348C26.3343 9.22168 26.111 8.82292 25.9561 8.36719C25.8011 7.91146 25.7236 7.41699 25.7236 6.88379ZM26.9883 6.72656V6.88379C26.9883 7.25293 27.0316 7.60156 27.1182 7.92969C27.2048 8.25326 27.3346 8.54036 27.5078 8.79102C27.6855 9.04167 27.9066 9.23991 28.1709 9.38574C28.4352 9.52702 28.7428 9.59766 29.0938 9.59766C29.4401 9.59766 29.7432 9.52702 30.0029 9.38574C30.2673 9.23991 30.486 9.04167 30.6592 8.79102C30.8324 8.54036 30.9622 8.25326 31.0488 7.92969C31.14 7.60156 31.1855 7.25293 31.1855 6.88379V6.72656C31.1855 6.36198 31.14 6.0179 31.0488 5.69434C30.9622 5.36621 30.8301 5.07682 30.6523 4.82617C30.4792 4.57096 30.2604 4.37044 29.9961 4.22461C29.7363 4.07878 29.431 4.00586 29.0801 4.00586C28.7337 4.00586 28.4284 4.07878 28.1641 4.22461C27.9043 4.37044 27.6855 4.57096 27.5078 4.82617C27.3346 5.07682 27.2048 5.36621 27.1182 5.69434C27.0316 6.0179 26.9883 6.36198 26.9883 6.72656ZM41.3916 1.42871L38.0967 10.5H36.75L40.5439 0.546875H41.4121L41.3916 1.42871ZM44.1533 10.5L40.8516 1.42871L40.8311 0.546875H41.6992L45.5068 10.5H44.1533ZM43.9824 6.81543V7.89551H38.3906V6.81543H43.9824ZM48.0225 0V10.5H46.751V0H48.0225ZM53.1221 10.6367C52.6071 10.6367 52.14 10.5501 51.7207 10.377C51.306 10.1992 50.9482 9.95085 50.6475 9.63184C50.3512 9.31283 50.1234 8.93457 49.9639 8.49707C49.8044 8.05957 49.7246 7.58105 49.7246 7.06152V6.77441C49.7246 6.17285 49.8135 5.63737 49.9912 5.16797C50.1689 4.69401 50.4105 4.29297 50.7158 3.96484C51.0212 3.63672 51.3675 3.38835 51.7549 3.21973C52.1423 3.05111 52.5433 2.9668 52.958 2.9668C53.4867 2.9668 53.9424 3.05794 54.3252 3.24023C54.7126 3.42253 55.0293 3.67773 55.2754 4.00586C55.5215 4.32943 55.7038 4.71224 55.8223 5.1543C55.9408 5.5918 56 6.07031 56 6.58984V7.15723H50.4766V6.125H54.7354V6.0293C54.7171 5.70117 54.6488 5.38216 54.5303 5.07227C54.4163 4.76237 54.234 4.50716 53.9834 4.30664C53.7327 4.10612 53.391 4.00586 52.958 4.00586C52.6709 4.00586 52.4066 4.06738 52.165 4.19043C51.9235 4.30892 51.7161 4.48665 51.543 4.72363C51.3698 4.96061 51.2354 5.25 51.1396 5.5918C51.0439 5.93359 50.9961 6.3278 50.9961 6.77441V7.06152C50.9961 7.41243 51.0439 7.74284 51.1396 8.05273C51.2399 8.35807 51.3835 8.62695 51.5703 8.85938C51.7617 9.0918 51.9919 9.27409 52.2607 9.40625C52.5342 9.53841 52.8441 9.60449 53.1904 9.60449C53.637 9.60449 54.0153 9.51335 54.3252 9.33105C54.6351 9.14876 54.9062 8.90495 55.1387 8.59961L55.9043 9.20801C55.7448 9.44954 55.542 9.67969 55.2959 9.89844C55.0498 10.1172 54.7467 10.2949 54.3867 10.4316C54.0312 10.5684 53.6097 10.6367 53.1221 10.6367ZM62.2686 3.10352H63.417V10.3428C63.417 10.9945 63.2848 11.5505 63.0205 12.0107C62.7562 12.471 62.387 12.8197 61.9131 13.0566C61.4437 13.2982 60.9014 13.4189 60.2861 13.4189C60.0309 13.4189 59.7301 13.3779 59.3838 13.2959C59.042 13.2184 58.7048 13.084 58.3721 12.8926C58.0439 12.7057 57.7682 12.4528 57.5449 12.1338L58.208 11.3818C58.5179 11.7555 58.8415 12.0153 59.1787 12.1611C59.5205 12.307 59.8577 12.3799 60.1904 12.3799C60.5915 12.3799 60.9378 12.3047 61.2295 12.1543C61.5212 12.0039 61.7467 11.7806 61.9062 11.4844C62.0703 11.1927 62.1523 10.8327 62.1523 10.4043V4.73047L62.2686 3.10352ZM57.1758 6.88379V6.74023C57.1758 6.17513 57.2419 5.66243 57.374 5.20215C57.5107 4.7373 57.7044 4.33854 57.9551 4.00586C58.2103 3.67318 58.5179 3.41797 58.8779 3.24023C59.238 3.05794 59.6436 2.9668 60.0947 2.9668C60.5596 2.9668 60.9652 3.04883 61.3115 3.21289C61.6624 3.3724 61.9587 3.6071 62.2002 3.91699C62.4463 4.22233 62.64 4.59147 62.7812 5.02441C62.9225 5.45736 63.0205 5.94727 63.0752 6.49414V7.12305C63.0251 7.66536 62.9271 8.15299 62.7812 8.58594C62.64 9.01888 62.4463 9.38802 62.2002 9.69336C61.9587 9.9987 61.6624 10.2334 61.3115 10.3975C60.9606 10.557 60.5505 10.6367 60.0811 10.6367C59.639 10.6367 59.238 10.5433 58.8779 10.3564C58.5225 10.1696 58.2171 9.90755 57.9619 9.57031C57.7067 9.23307 57.5107 8.83659 57.374 8.38086C57.2419 7.92057 57.1758 7.42155 57.1758 6.88379ZM58.4404 6.74023V6.88379C58.4404 7.25293 58.4769 7.59928 58.5498 7.92285C58.6273 8.24642 58.7435 8.53125 58.8984 8.77734C59.0579 9.02344 59.2607 9.21712 59.5068 9.3584C59.7529 9.49512 60.0469 9.56348 60.3887 9.56348C60.8079 9.56348 61.1543 9.47461 61.4277 9.29688C61.7012 9.11914 61.9176 8.88444 62.0771 8.59277C62.2412 8.30111 62.3688 7.98438 62.46 7.64258V5.99512C62.4098 5.74447 62.3324 5.50293 62.2275 5.27051C62.1273 5.03353 61.9951 4.82389 61.8311 4.6416C61.6715 4.45475 61.4733 4.30664 61.2363 4.19727C60.9993 4.08789 60.7214 4.0332 60.4023 4.0332C60.056 4.0332 59.7575 4.10612 59.5068 4.25195C59.2607 4.39323 59.0579 4.58919 58.8984 4.83984C58.7435 5.08594 58.6273 5.37305 58.5498 5.70117C58.4769 6.02474 58.4404 6.37109 58.4404 6.74023ZM66.6025 4.26562V10.5H65.3379V3.10352H66.5684L66.6025 4.26562ZM68.9131 3.0625L68.9062 4.23828C68.8014 4.21549 68.7012 4.20182 68.6055 4.19727C68.5143 4.18815 68.4095 4.18359 68.291 4.18359C67.9993 4.18359 67.7419 4.22917 67.5186 4.32031C67.2952 4.41146 67.1061 4.53906 66.9512 4.70312C66.7962 4.86719 66.6732 5.06315 66.582 5.29102C66.4954 5.51432 66.4385 5.76042 66.4111 6.0293L66.0557 6.23438C66.0557 5.78776 66.099 5.36849 66.1855 4.97656C66.2767 4.58464 66.4157 4.23828 66.6025 3.9375C66.7894 3.63216 67.0264 3.39518 67.3135 3.22656C67.6051 3.05339 67.9515 2.9668 68.3525 2.9668C68.4437 2.9668 68.5485 2.97819 68.667 3.00098C68.7855 3.01921 68.8675 3.03971 68.9131 3.0625ZM73.0146 10.6367C72.4997 10.6367 72.0326 10.5501 71.6133 10.377C71.1986 10.1992 70.8408 9.95085 70.54 9.63184C70.2438 9.31283 70.016 8.93457 69.8564 8.49707C69.6969 8.05957 69.6172 7.58105 69.6172 7.06152V6.77441C69.6172 6.17285 69.7061 5.63737 69.8838 5.16797C70.0615 4.69401 70.3031 4.29297 70.6084 3.96484C70.9137 3.63672 71.2601 3.38835 71.6475 3.21973C72.0348 3.05111 72.4359 2.9668 72.8506 2.9668C73.3792 2.9668 73.835 3.05794 74.2178 3.24023C74.6051 3.42253 74.9219 3.67773 75.168 4.00586C75.4141 4.32943 75.5964 4.71224 75.7148 5.1543C75.8333 5.5918 75.8926 6.07031 75.8926 6.58984V7.15723H70.3691V6.125H74.6279V6.0293C74.6097 5.70117 74.5413 5.38216 74.4229 5.07227C74.3089 4.76237 74.1266 4.50716 73.876 4.30664C73.6253 4.10612 73.2835 4.00586 72.8506 4.00586C72.5635 4.00586 72.2992 4.06738 72.0576 4.19043C71.8161 4.30892 71.6087 4.48665 71.4355 4.72363C71.2624 4.96061 71.1279 5.25 71.0322 5.5918C70.9365 5.93359 70.8887 6.3278 70.8887 6.77441V7.06152C70.8887 7.41243 70.9365 7.74284 71.0322 8.05273C71.1325 8.35807 71.276 8.62695 71.4629 8.85938C71.6543 9.0918 71.8844 9.27409 72.1533 9.40625C72.4268 9.53841 72.7367 9.60449 73.083 9.60449C73.5296 9.60449 73.9079 9.51335 74.2178 9.33105C74.5277 9.14876 74.7988 8.90495 75.0312 8.59961L75.7969 9.20801C75.6374 9.44954 75.4346 9.67969 75.1885 9.89844C74.9424 10.1172 74.6393 10.2949 74.2793 10.4316C73.9238 10.5684 73.5023 10.6367 73.0146 10.6367ZM78.5176 8.99609V10.0146C78.5176 10.4294 78.4128 10.8669 78.2031 11.3271C77.9935 11.792 77.6995 12.1794 77.3213 12.4893L76.6035 11.9902C76.7493 11.7897 76.8724 11.5846 76.9727 11.375C77.0729 11.1699 77.1481 10.9557 77.1982 10.7324C77.2529 10.5137 77.2803 10.2812 77.2803 10.0352V8.99609H78.5176ZM83.7949 0.546875H87.0898C87.8372 0.546875 88.4684 0.660807 88.9834 0.888672C89.5029 1.11654 89.8971 1.45378 90.166 1.90039C90.4395 2.34245 90.5762 2.88704 90.5762 3.53418C90.5762 3.98991 90.4827 4.4069 90.2959 4.78516C90.1136 5.15885 89.8493 5.47786 89.5029 5.74219C89.1611 6.00195 88.751 6.19564 88.2725 6.32324L87.9033 6.4668H84.8066L84.793 5.39355H87.1309C87.6048 5.39355 87.999 5.31152 88.3135 5.14746C88.6279 4.97884 88.8649 4.75326 89.0244 4.4707C89.1839 4.18815 89.2637 3.87598 89.2637 3.53418C89.2637 3.15137 89.1885 2.81641 89.0381 2.5293C88.8877 2.24219 88.6507 2.02116 88.3271 1.86621C88.0081 1.70671 87.5957 1.62695 87.0898 1.62695H85.1143V10.5H83.7949V0.546875ZM89.6123 10.5L87.1924 5.98828L88.5664 5.98145L91.0205 10.418V10.5H89.6123ZM97.7266 7.98438C97.7266 7.75195 97.6901 7.54688 97.6172 7.36914C97.5488 7.18685 97.4258 7.02279 97.248 6.87695C97.0749 6.73112 96.8333 6.59212 96.5234 6.45996C96.2181 6.3278 95.8307 6.19336 95.3613 6.05664C94.8691 5.91081 94.4248 5.74902 94.0283 5.57129C93.6318 5.389 93.2923 5.18164 93.0098 4.94922C92.7272 4.7168 92.5107 4.4502 92.3604 4.14941C92.21 3.84863 92.1348 3.50456 92.1348 3.11719C92.1348 2.72982 92.2145 2.37207 92.374 2.04395C92.5335 1.71582 92.7614 1.43099 93.0576 1.18945C93.3584 0.943359 93.7161 0.751953 94.1309 0.615234C94.5456 0.478516 95.0081 0.410156 95.5186 0.410156C96.266 0.410156 96.8994 0.553711 97.4189 0.84082C97.943 1.12337 98.3418 1.49479 98.6152 1.95508C98.8887 2.41081 99.0254 2.89844 99.0254 3.41797H97.7129C97.7129 3.04427 97.6331 2.71387 97.4736 2.42676C97.3141 2.13509 97.0726 1.90723 96.749 1.74316C96.4255 1.57454 96.0153 1.49023 95.5186 1.49023C95.0492 1.49023 94.6618 1.56087 94.3564 1.70215C94.0511 1.84342 93.8232 2.03483 93.6729 2.27637C93.527 2.5179 93.4541 2.79362 93.4541 3.10352C93.4541 3.31315 93.4974 3.50456 93.584 3.67773C93.6751 3.84635 93.8141 4.00358 94.001 4.14941C94.1924 4.29525 94.4339 4.42969 94.7256 4.55273C95.0218 4.67578 95.375 4.79427 95.7852 4.9082C96.3503 5.06771 96.8379 5.24544 97.248 5.44141C97.6582 5.63737 97.9954 5.8584 98.2598 6.10449C98.5286 6.34603 98.7269 6.62174 98.8545 6.93164C98.9867 7.23698 99.0527 7.58333 99.0527 7.9707C99.0527 8.3763 98.9707 8.74316 98.8066 9.07129C98.6426 9.39941 98.4079 9.67969 98.1025 9.91211C97.7972 10.1445 97.4303 10.3245 97.002 10.4521C96.5781 10.5752 96.1042 10.6367 95.5801 10.6367C95.1198 10.6367 94.6663 10.5729 94.2197 10.4453C93.7777 10.3177 93.3743 10.1263 93.0098 9.87109C92.6497 9.61589 92.3604 9.30143 92.1416 8.92773C91.9274 8.54948 91.8203 8.11198 91.8203 7.61523H93.1328C93.1328 7.95703 93.1989 8.25098 93.3311 8.49707C93.4632 8.73861 93.6432 8.93913 93.8711 9.09863C94.1035 9.25814 94.3656 9.37663 94.6572 9.4541C94.9535 9.52702 95.2611 9.56348 95.5801 9.56348C96.0404 9.56348 96.43 9.49967 96.749 9.37207C97.068 9.24447 97.3096 9.06217 97.4736 8.8252C97.6423 8.58822 97.7266 8.30794 97.7266 7.98438Z" fill="#4B2995"/>
</svg>
